<?xml version="1.0" encoding="utf-8"?>
<!-- Generator: Adobe Illustrator 16.0.0, SVG Export Plug-In . SVG Version: 6.00 Build 0)  -->
<!DOCTYPE svg PUBLIC "-//W3C//DTD SVG 1.1//EN" "http://www.w3.org/Graphics/SVG/1.1/DTD/svg11.dtd">
<svg version="1.1" id="Layer_1" xmlns="http://www.w3.org/2000/svg" xmlns:xlink="http://www.w3.org/1999/xlink" x="0px" y="0px"
	 width="281px" height="57.8px" viewBox="181.78 37.391 281 57.8" enable-background="new 181.78 37.391 281 57.8"
	 xml:space="preserve">
<path fill="#0E4193" d="M181.78,37.671c4.989,0,9.979,0.01,14.968-0.014c0.53-0.002,0.839,0.172,1.154,0.576
	c9.906,12.722,19.824,25.434,29.74,38.147c0.07,0.091,0.141,0.179,0.217,0.273c0.221-0.14,0.119-0.346,0.12-0.509
	c0.006-4.313,0.001-8.626,0.013-12.939c0-0.399-0.113-0.708-0.355-1.018c-5.66-7.228-11.316-14.457-16.956-21.7
	c-0.365-0.469-0.724-0.695-1.334-0.658c-0.953,0.057-1.911,0-2.867,0.022c-0.386,0.008-0.514-0.102-0.523-0.507
	c-0.04-1.674-0.055-1.674,1.641-1.674c4.477,0,8.953,0.009,13.429-0.013c0.5-0.002,0.795,0.158,1.096,0.543
	c4.627,5.936,9.273,11.857,13.904,17.789c0.267,0.341,0.401,0.539,0.78,0.068c4.26-5.306,8.544-10.592,12.82-15.885
	c0.072-0.09,0.132-0.19,0.198-0.286c0.186-0.172,0.419-0.19,0.652-0.193c1.372-0.015,2.741-0.015,4.112,0
	c0.232,0.002,0.467,0.021,0.652,0.193c-3.008,3.741-6.016,7.483-9.028,11.221c-2.427,3.013-4.856,6.025-7.299,9.026
	c-0.283,0.348-0.391,0.699-0.39,1.144c0.01,7.557-0.001,15.112,0.023,22.668c0.001,0.619-0.153,0.765-0.766,0.761
	c-5.34-0.034-10.681-0.042-16.021-0.023c-0.623,0.001-1.006-0.19-1.387-0.681c-6.199-7.992-12.417-15.971-18.632-23.953
	c-3.68-4.726-7.36-9.453-11.043-14.175c-0.121-0.155-0.192-0.375-0.498-0.437c0,0.242,0,0.463,0,0.686
	c0,11.871,0.006,23.741-0.015,35.612c-0.001,0.658,0.127,0.897,0.828,0.85c0.975-0.067,1.958-0.007,2.937-0.022
	c0.313-0.005,0.438,0.066,0.458,0.419c0.094,1.687,0.107,1.683-1.574,1.686c-3.685,0.006-7.369,0.015-11.053,0.023
	c0-0.7,0-1.399,0-2.1c0.247-0.223,0.555-0.221,0.858-0.224c0.723-0.01,1.446,0.002,2.169-0.006c0.881-0.009,0.929-0.062,0.943-0.967
	c0.001-0.116,0-0.232,0-0.349c0-13.197,0-26.394,0-39.591c0-1.317-0.001-1.317-1.293-1.319c-0.605,0-1.212,0.005-1.818-0.003
	c-0.303-0.004-0.611-0.001-0.858-0.224C181.78,39.164,181.78,38.417,181.78,37.671z"/>
<path fill="#1D1D1B" d="M462.264,76.198c-1.398-0.8-3.53-0.541-4.685,0.594c-1.418,1.393-1.734,4.537-0.637,6.333
	c1.121,1.837,4.299,2.231,5.837,0.727c0-0.421,0-0.84,0-1.26c-0.304-0.131-0.525,0.059-0.766,0.192
	c-1.974,1.096-3.689,0.115-3.732-2.137c-0.009-0.395-0.016-0.793,0.031-1.184c0.241-1.972,1.913-2.778,3.619-1.757
	c0.265,0.158,0.507,0.472,0.848,0.127c0-0.374,0-0.746,0-1.12C462.591,76.561,462.497,76.33,462.264,76.198z"/>
<path fill="#E20613" d="M255.24,39.888c-1.806-0.058-3.611-0.056-5.416,0c-1.631-0.015-3.262-0.05-4.892-0.032
	c-0.5,0.006-0.616-0.146-0.611-0.626c0.017-1.558-0.003-1.559,1.542-1.558c5.41,0.007,10.82-0.055,16.229,0.045
	c4.506,0.083,8.899,0.847,12.939,2.999c3.277,1.746,5.641,4.27,6.387,8.021c1.16,5.826-1.325,10.575-6.789,13.113
	c-3.097,1.438-6.389,2.127-9.75,2.548c-1.619,0.203-3.245,0.33-4.874,0.393c-0.396,0.015-0.494,0.16-0.493,0.541
	c0.011,5.55,0.012,11.1,0,16.648c-0.001,0.448,0.104,0.615,0.582,0.6c1.048-0.035,2.098,0.002,3.148-0.019
	c0.36-0.007,0.472,0.101,0.487,0.472c0.065,1.659,0.079,1.658-1.593,1.658c-4.174,0-8.348-0.01-12.522,0.013
	c-0.529,0.004-0.652-0.136-0.65-0.655c0.019-6.81,0.011-13.618,0.013-20.427c0-0.923,0.006-0.925,0.897-0.923
	c3.194,0.006,6.39,0.083,9.583,0.006c4.5-0.109,8.117-1.998,10.294-5.99c2.097-3.844,2.021-7.85-0.412-11.539
	c-2.265-3.436-5.583-5.259-9.763-5.325C258.129,39.826,256.684,39.873,255.24,39.888z"/>
<path fill="#1D1D1B" d="M419.344,45.199c0.17,7.315,0.012,14.611,0.053,21.907c0.007,1.165-0.16,1.358-1.324,1.533
	c-0.905,0.134-1.812,0.127-2.714-0.033c-0.839-0.149-1.021-0.367-1.021-1.206c0-9.071-0.002-18.143,0.002-27.214
	c0-1.59,0.708-2.295,2.311-2.3c1.095-0.003,2.19,0.018,3.285,0.045c1.117,0.029,1.968,0.554,2.517,1.511
	c1.007,1.756,1.788,3.625,2.66,5.45c2.303,4.822,4.668,9.618,6.706,14.562c0.028,0.074,0.009,0.197,0.105,0.193
	c0-1.37,0-2.735,0-4.102c0-5.457,0.012-10.913-0.012-16.371c-0.004-0.754,0.308-1.128,1.009-1.249
	c1.042-0.18,2.085-0.169,3.128-0.008c0.625,0.096,0.942,0.461,0.955,1.091c0.004,0.186,0.003,0.373,0.003,0.56
	c0,8.698,0,17.396-0.002,26.093c0,0.302-0.013,0.606-0.044,0.907c-0.14,1.404-0.824,2.036-2.226,2.051
	c-0.815,0.01-1.632-0.01-2.447,0c-1.238,0.014-2.135-0.552-2.759-1.593c-0.805-1.339-1.404-2.779-2.067-4.188
	c-2.34-4.96-4.812-9.858-7.008-14.884C420.056,47.047,419.712,46.118,419.344,45.199z"/>
<path fill="#1D1D1B" d="M309.567,58.359c-0.016-6.342-0.031-12.685-0.045-19.026c-0.002-1.028,0.184-1.289,1.193-1.438
	c1.016-0.151,2.044-0.167,3.058,0.051c0.545,0.118,0.817,0.44,0.817,1.038c-0.01,9.164-0.003,18.329-0.012,27.493
	c-0.001,1.34-0.801,2.114-2.143,2.142c-0.816,0.016-1.633-0.015-2.448,0.006c-1.328,0.034-2.293-0.568-2.912-1.699
	c-0.567-1.039-1.081-2.111-1.583-3.184c-2.481-5.304-5.137-10.527-7.475-15.899c-0.334-0.767-0.626-1.551-0.937-2.328
	c-0.405,0.333-0.155,0.748-0.146,1.133c0.013,6.877,0.027,13.755,0.039,20.632c0.001,0.953-0.188,1.178-1.126,1.334
	c-0.974,0.159-1.947,0.148-2.921-0.013c-0.666-0.11-1.021-0.441-1.021-1.169c0.01-9.046,0-18.093,0.012-27.14
	c0.002-1.715,0.728-2.406,2.443-2.407c1.024,0,2.049,0.034,3.073,0.04c1.308,0.008,2.218,0.66,2.779,1.785
	c0.945,1.892,1.849,3.804,2.759,5.712c2.221,4.656,4.504,9.284,6.456,14.064c0.375,0.069,0.172-0.226,0.178-0.331
	C309.621,58.892,309.666,58.619,309.567,58.359z"/>
<path fill="#1D1D1B" d="M361.896,58.374c-0.012-6.458-0.018-12.916-0.046-19.374c-0.003-0.614,0.292-0.922,0.815-1.036
	c1.128-0.244,2.268-0.237,3.4-0.021c0.589,0.112,0.838,0.488,0.838,1.1c-0.01,9.116-0.003,18.232-0.011,27.349
	c-0.001,1.432-0.79,2.206-2.204,2.227c-0.816,0.012-1.632-0.01-2.447,0.003c-1.265,0.019-2.177-0.555-2.817-1.62
	c-0.757-1.258-1.323-2.612-1.944-3.937c-2.415-5.155-5.008-10.227-7.256-15.459c-0.349-0.81-0.654-1.639-1.019-2.557
	c-0.118,0.773,0.001,1.464,0.017,2.149c0.149,6.783,0.021,13.567,0.07,20.351c0.004,0.532-0.244,0.842-0.725,0.964
	c-1.194,0.306-2.4,0.288-3.598,0.021c-0.479-0.107-0.728-0.416-0.727-0.958c0.01-9.209,0.004-18.418,0.011-27.628
	c0.001-1.223,0.691-1.982,1.918-2.041c1.326-0.063,2.658-0.09,3.981,0.048c1.12,0.117,1.877,0.782,2.364,1.751
	c0.71,1.411,1.396,2.834,2.07,4.263c2.401,5.084,4.931,10.109,7.058,15.318c0.044,0.107,0.08,0.218,0.12,0.327
	C362.149,59.237,361.916,58.794,361.896,58.374z"/>
<path fill="#1D1D1B" d="M380.01,51.184c1.311-4.289,3.118-8.271,4.676-12.349c0.241-0.632,0.676-0.938,1.295-1.002
	c1.276-0.133,2.559-0.113,3.835,0c0.81,0.071,1.062,0.467,0.786,1.245c-0.766,2.148-1.81,4.177-2.73,6.259
	c-1.646,3.717-3.326,7.42-5.003,11.123c-0.16,0.353-0.21,0.703-0.209,1.081c0.006,3.217,0.004,6.434,0.002,9.651
	c0,1.034-0.192,1.258-1.209,1.412c-1.114,0.169-2.229,0.17-3.34-0.016c-0.915-0.155-1.092-0.373-1.092-1.291
	c-0.001-3.263-0.005-6.526,0.005-9.79c0.001-0.381-0.069-0.727-0.227-1.076c-2.437-5.399-4.865-10.802-7.288-16.206
	c-0.199-0.444-0.366-0.905-0.503-1.371c-0.151-0.526,0.081-0.899,0.613-0.965c1.527-0.189,3.058-0.238,4.582,0.048
	c0.548,0.102,0.803,0.517,0.988,0.987c1.552,3.931,3.289,7.789,4.619,11.807C379.847,50.839,379.903,50.941,380.01,51.184z"/>
<path fill="#E20613" d="M377.669,89.703c-22.044,1.824-44.088,3.646-66.351,5.488c1.916-1.954,3.708-3.781,5.5-5.608
	c0.221-0.112,0.458-0.06,0.688-0.06c19.817-0.002,39.634-0.003,59.451,0.01C377.187,89.533,377.511,89.33,377.669,89.703z"/>
<path fill="#1D1D1B" d="M450.022,81.793c0-1.712,0.035-3.426-0.018-5.138c-0.021-0.711,0.289-0.784,0.871-0.798
	c0.62-0.015,0.799,0.194,0.79,0.804c-0.031,2.26-0.006,4.521-0.019,6.779c-0.003,0.415,0.17,0.927-0.415,1.135
	c-0.708,0.252-1.72,0.033-2.025-0.496c-0.578-1.007-1.116-2.037-1.663-3.061c-0.487-0.913-0.965-1.83-1.488-2.824
	c0,1.925,0.006,3.751-0.006,5.579c-0.002,0.278,0.149,0.646-0.227,0.8c-0.401,0.164-0.824,0.137-1.231-0.012
	c-0.239-0.086-0.163-0.309-0.163-0.48c-0.005-2.493-0.001-4.986-0.006-7.479c-0.001-0.277,0.062-0.502,0.321-0.643
	c0.731-0.399,2.107-0.014,2.497,0.725c0.868,1.642,1.719,3.293,2.583,4.938C449.857,81.686,449.857,81.817,450.022,81.793z"/>
<path fill="#E20613" d="M325.055,81.986c0-1.862,0.033-3.576-0.017-5.287c-0.02-0.669,0.311-0.702,0.807-0.715
	c0.529-0.014,0.727,0.161,0.719,0.726c-0.031,2.259-0.007,4.519-0.019,6.777c-0.002,0.414,0.167,0.928-0.446,1.107
	c-0.721,0.211-1.492,0.006-1.825-0.497c-0.115-0.174-0.201-0.366-0.296-0.552c-0.866-1.716-1.732-3.432-2.655-5.261
	c0,0.925,0,1.741,0,2.558c0,0.979,0,1.957,0,2.935c0,0.807-0.243,1.005-1.039,0.883c-0.356-0.055-0.51-0.213-0.507-0.6
	c0.014-2.421,0.009-4.845,0.007-7.266c0-0.552,0.267-0.739,0.816-0.799c1.06-0.114,1.669,0.284,2.104,1.267
	C323.395,78.825,324.219,80.325,325.055,81.986z"/>
<path fill="#E20613" d="M329.26,84.54c-0.204,0.043-0.406,0.104-0.612,0.123c-0.59,0.055-0.874-0.131-0.861-0.817
	c0.046-2.192,0.009-4.385,0.024-6.577c0.004-0.455-0.192-1.041,0.479-1.235c0.896-0.259,1.772-0.001,2.098,0.641
	c0.86,1.701,1.692,3.417,2.536,5.126c0.017,0.033,0.046,0.061,0.133,0.167c0-1.791,0.025-3.505-0.015-5.215
	c-0.015-0.599,0.201-0.766,0.756-0.771c0.58-0.006,0.822,0.155,0.811,0.796c-0.037,2.238-0.011,4.478-0.018,6.716
	c0,0.427,0.109,0.927-0.479,1.102c-0.723,0.217-1.516,0.022-1.819-0.502c-0.384-0.663-0.718-1.356-1.063-2.042
	c-0.564-1.122-1.12-2.248-1.68-3.372c-0.391,0.057-0.192,0.361-0.195,0.537c-0.017,1.553-0.006,3.104-0.014,4.656
	C329.339,84.094,329.421,84.335,329.26,84.54z"/>
<path fill="#1D1D1B" d="M436.214,80.234c0-1.236,0.022-2.472-0.011-3.706c-0.013-0.486,0.155-0.655,0.627-0.681
	c1.127-0.06,1.18-0.027,1.18,1.089c0,0.63,0.018,1.26-0.007,1.889c-0.013,0.347,0.062,0.504,0.455,0.488
	c0.768-0.029,1.538-0.031,2.307,0c0.42,0.018,0.506-0.151,0.494-0.527c-0.024-0.745,0.017-1.493-0.016-2.236
	c-0.021-0.471,0.133-0.673,0.617-0.701c1.141-0.069,1.211-0.02,1.211,1.144c0,2.307-0.03,4.615,0.016,6.922
	c0.016,0.766-0.422,0.751-0.927,0.753c-0.511,0.001-0.977,0.003-0.923-0.761c0.062-0.858-0.001-1.725,0.021-2.586
	c0.01-0.359-0.083-0.501-0.465-0.487c-0.77,0.027-1.54,0.032-2.307-0.001c-0.428-0.018-0.493,0.163-0.484,0.53
	c0.022,0.885-0.024,1.772,0.021,2.656c0.023,0.479-0.193,0.6-0.594,0.644c-1.036,0.112-1.215-0.04-1.215-1.071
	C436.214,82.471,436.214,81.354,436.214,80.234z"/>
<path fill="#1D1D1B" d="M306.326,80.363c0,1.235-0.024,2.47,0.01,3.704c0.019,0.69-0.458,0.591-0.846,0.59
	c-0.385-0.002-0.877,0.109-0.851-0.584c0.033-0.883-0.009-1.771,0.016-2.655c0.01-0.375-0.067-0.537-0.487-0.515
	c-0.673,0.035-1.351,0.03-2.025,0.001c-0.39-0.018-0.528,0.095-0.515,0.5c0.029,0.861-0.017,1.725,0.017,2.585
	c0.026,0.679-0.417,0.679-0.871,0.674c-0.443-0.005-0.881,0.033-0.873-0.668c0.029-2.444,0.032-4.89-0.002-7.336
	c-0.009-0.697,0.391-0.663,0.852-0.67c0.495-0.007,0.941-0.025,0.896,0.701c-0.045,0.742,0.006,1.491-0.017,2.235
	c-0.01,0.361,0.101,0.492,0.473,0.479c0.698-0.025,1.398-0.029,2.096,0c0.383,0.018,0.468-0.125,0.456-0.477
	c-0.023-0.721,0.046-1.449-0.022-2.164c-0.07-0.734,0.309-0.775,0.872-0.785c0.607-0.01,0.876,0.136,0.84,0.821
	C306.282,77.985,306.327,79.175,306.326,80.363z"/>
<path fill="#1D1D1B" d="M422.034,80.213c0-1.188,0.021-2.378-0.01-3.566c-0.015-0.582,0.217-0.788,0.782-0.778
	c1.259,0.022,2.519,0.032,3.775-0.004c0.598-0.019,0.629,0.325,0.629,0.749c0.001,0.411-0.062,0.723-0.61,0.694
	c-0.768-0.039-1.538,0.006-2.307-0.017c-0.351-0.01-0.48,0.081-0.499,0.459c-0.079,1.648-0.093,1.647,1.537,1.647
	c0.187,0,0.372,0,0.56,0c0.771,0.002,0.997,0.321,0.801,1.085c-0.073,0.279-0.25,0.293-0.472,0.291
	c-0.651-0.002-1.306,0.021-1.958-0.009c-0.376-0.017-0.455,0.123-0.467,0.478c-0.063,1.934-0.073,1.934,1.879,1.934
	c0.233,0,0.467-0.001,0.699,0c0.8,0.002,0.929,0.156,0.863,0.933c-0.033,0.386-0.209,0.52-0.582,0.516
	c-1.306-0.011-2.61-0.013-3.916,0c-0.547,0.005-0.726-0.245-0.714-0.774C422.051,82.637,422.034,81.424,422.034,80.213z"/>
<path fill="#E20613" d="M371.058,82.579c0.576-1.929,1.154-3.857,1.727-5.788c0.214-0.725,0.896-1.056,1.584-0.771
	c0.269,0.112,0.235,0.296,0.166,0.515c-0.821,2.566-1.641,5.132-2.457,7.701c-0.081,0.257-0.252,0.378-0.506,0.408
	c-0.092,0.011-0.185,0.019-0.277,0.024c-1.419,0.073-1.421,0.065-1.847-1.279c-0.69-2.168-1.39-4.334-2.085-6.502
	c-0.263-0.823-0.212-0.841,0.62-0.909c0.706-0.059,1.019,0.178,1.21,0.877c0.522,1.92,1.133,3.817,1.709,5.724
	C370.954,82.578,371.005,82.579,371.058,82.579z"/>
<path fill="#E20613" d="M347.395,82.63c0.282-0.192,0.269-0.473,0.337-0.7c0.531-1.756,1.044-3.517,1.565-5.275
	c0.171-0.574,1.128-0.945,1.615-0.613c0.326,0.224,0.091,0.525,0.017,0.761c-0.662,2.104-1.345,4.201-2.021,6.3
	c-0.058,0.178-0.116,0.354-0.172,0.531c-0.32,1.036-0.32,1.01-1.376,1.045c-0.714,0.023-1.116-0.149-1.343-0.94
	c-0.666-2.318-1.451-4.602-2.185-6.899c-0.253-0.79-0.211-0.796,0.599-0.857c0.722-0.057,1.057,0.165,1.253,0.911
	C346.19,78.812,346.811,80.699,347.395,82.63z"/>
<path fill="#E20613" d="M375.597,80.284c0-1.164,0.009-2.33-0.004-3.495c-0.007-0.559,0.217-0.797,0.795-0.782
	c1.164,0.027,2.331,0.032,3.496-0.003c0.575-0.017,0.58,0.34,0.582,0.718c0.003,0.391-0.033,0.738-0.599,0.702
	c-0.65-0.043-1.306-0.01-1.957-0.01c-0.117,0-0.271-0.048-0.345,0.01c-0.552,0.436-0.158,1.046-0.26,1.569
	c-0.05,0.26-0.031,0.516,0.369,0.501c0.582-0.02,1.168,0.035,1.746-0.016c0.577-0.051,0.583,0.29,0.589,0.689
	c0.006,0.424-0.074,0.726-0.615,0.685c-0.51-0.037-1.025,0.015-1.536-0.015c-0.412-0.022-0.564,0.09-0.571,0.539
	c-0.029,1.842-0.047,1.842,1.778,1.842c0.209,0,0.421,0.019,0.628-0.004c0.538-0.059,0.817,0.095,0.815,0.709
	c-0.002,0.626-0.304,0.723-0.832,0.709c-1.07-0.028-2.144-0.031-3.214,0c-0.629,0.018-0.89-0.212-0.874-0.853
	C375.618,82.615,375.597,81.449,375.597,80.284z"/>
<path fill="#1D1D1B" d="M428.434,80.384c0.044-0.646,0.061-1.181,0.203-1.703c0.672-2.463,3.321-3.677,5.595-2.557
	c0.617,0.304,0.897,1.022,0.644,1.64c-0.163,0.394-0.394,0.209-0.609,0.066c-0.473-0.311-0.968-0.541-1.553-0.561
	c-0.955-0.031-1.621,0.411-1.983,1.259c-0.477,1.117-0.473,2.276-0.044,3.404c0.411,1.085,1.496,1.535,2.72,1.189
	c0.178-0.05,0.341-0.162,0.519-0.202c0.322-0.076,0.573-0.638,0.952-0.223c0.29,0.319-0.005,1.312-0.395,1.551
	c-2.463,1.518-5.64-0.003-5.979-2.864C428.459,81.015,428.451,80.642,428.434,80.384z"/>
<path fill="#1D1D1B" d="M310.12,76.016c0.583,0,1.167,0.025,1.748-0.008c0.606-0.035,0.535,0.376,0.542,0.741
	c0.008,0.359,0.021,0.702-0.529,0.674c-0.721-0.037-1.446,0.013-2.167-0.018c-0.384-0.018-0.452,0.121-0.458,0.474
	c-0.032,1.61-0.044,1.609,1.564,1.609c0.139,0,0.282,0.021,0.419-0.003c0.54-0.09,0.758,0.136,0.757,0.675
	c-0.001,0.54-0.224,0.771-0.764,0.682c-0.067-0.012-0.139-0.002-0.209-0.002c-1.982,0.001-1.976,0.007-1.77,2.04
	c0.037,0.356,0.214,0.345,0.456,0.344c0.723-0.003,1.447,0.02,2.168-0.008c0.496-0.02,0.591,0.249,0.583,0.651
	c-0.007,0.382,0.026,0.764-0.549,0.757c-1.235-0.017-2.471-0.005-3.707-0.007c-0.426-0.001-0.626-0.198-0.625-0.646
	c0.01-2.447,0.008-4.895,0.002-7.344c-0.001-0.452,0.218-0.622,0.648-0.614C308.861,76.022,309.49,76.016,310.12,76.016z"/>
<path fill="#1D1D1B" d="M409.514,79.522c0.487-1.095,0.953-2.152,1.433-3.206c0.188-0.415,1.602-0.678,1.916-0.365
	c0.21,0.208,0.015,0.398-0.068,0.566c-0.608,1.228-1.204,2.462-1.857,3.665c-0.413,0.757-0.66,1.521-0.571,2.39
	c0.034,0.346,0.006,0.698,0.006,1.048c-0.001,0.968-0.578,1.329-1.52,0.979c-0.257-0.096-0.297-0.259-0.297-0.479
	c-0.001-0.302-0.038-0.61,0.006-0.908c0.205-1.412-0.285-2.635-0.956-3.832c-0.533-0.952-0.993-1.945-1.49-2.917
	c-0.213-0.413-0.096-0.575,0.367-0.612c1.271-0.101,1.338-0.076,1.881,1.118C408.745,77.812,409.123,78.656,409.514,79.522z"/>
<path fill="#1D1D1B" d="M418.255,80.912c0,1.049-0.017,2.1,0.01,3.147c0.008,0.393-0.15,0.532-0.508,0.591
	c-1.057,0.173-1.321-0.038-1.321-1.098c0-1.866-0.016-3.73,0.011-5.596c0.007-0.47-0.134-0.618-0.589-0.573
	c-0.37,0.035-0.749-0.029-1.117,0.015c-0.621,0.074-0.771-0.264-0.775-0.778c-0.004-0.522,0.163-0.777,0.774-0.762
	c1.771,0.045,3.545,0.041,5.315,0.002c0.59-0.013,0.659,0.3,0.652,0.729c-0.006,0.425,0.013,0.854-0.646,0.812
	c-0.574-0.037-1.379-0.203-1.677,0.094c-0.387,0.388-0.101,1.187-0.124,1.809C418.239,79.839,418.255,80.376,418.255,80.912z"/>
<path fill="#1E1E1C" d="M294.455,81.003c0-1.002-0.014-2.004,0.008-3.005c0.008-0.374-0.076-0.562-0.493-0.519
	c-0.3,0.031-0.604,0.006-0.908,0.005c-0.822-0.001-1.095-0.388-0.856-1.182c0.079-0.262,0.25-0.29,0.479-0.29
	c1.747,0.004,3.493,0.016,5.24-0.006c0.536-0.007,0.543,0.323,0.538,0.683c-0.005,0.358,0.083,0.797-0.503,0.795
	c-0.094,0-0.187,0-0.28,0.001c-1.497,0.013-1.497,0.013-1.497,1.546c0,1.63-0.03,3.26,0.014,4.889
	c0.018,0.698-0.37,0.751-0.875,0.748c-0.49-0.004-0.918-0.016-0.88-0.732C294.495,82.961,294.455,81.979,294.455,81.003z"/>
<path fill="#E20613" d="M358.782,81.001c0-1.002-0.018-2.003,0.009-3.004c0.008-0.4-0.124-0.548-0.519-0.516
	c-0.301,0.025-0.606,0.005-0.908,0.005c-0.836-0.002-0.989-0.192-0.87-1.044c0.042-0.304,0.158-0.437,0.489-0.434
	c1.746,0.013,3.493,0.02,5.238-0.002c0.552-0.008,0.528,0.336,0.521,0.69c-0.009,0.351,0.112,0.803-0.494,0.788
	c-0.093-0.002-0.187,0-0.279,0.001c-1.484,0.016-1.484,0.016-1.484,1.469c0,1.653-0.03,3.307,0.014,4.96
	c0.018,0.693-0.357,0.756-0.868,0.754c-0.495-0.002-0.907-0.021-0.862-0.735C358.826,82.96,358.782,81.979,358.782,81.001z"/>
<path fill="#1D1D1B" d="M402.163,80.177c0-1.213,0.019-2.425-0.009-3.636c-0.011-0.471,0.127-0.666,0.617-0.691
	c1.153-0.06,1.21-0.025,1.21,1.146c0,1.864,0.013,3.73-0.009,5.594c-0.005,0.428,0.107,0.573,0.546,0.548
	c0.65-0.037,1.306,0.01,1.956-0.015c0.57-0.021,0.496,0.368,0.489,0.71c-0.007,0.352,0.122,0.793-0.49,0.788
	c-1.211-0.009-2.424-0.006-3.636,0c-0.507,0.002-0.69-0.239-0.682-0.738C402.177,82.647,402.163,81.411,402.163,80.177z"/>
<path fill="#1D1D1B" d="M454.803,80.298c0,1.233-0.022,2.468,0.012,3.699c0.012,0.451-0.148,0.616-0.57,0.665
	c-1.055,0.121-1.261-0.049-1.261-1.106c0-2.28,0-4.562,0-6.842c0-0.826,0.044-0.834,0.931-0.872c0.671-0.029,0.95,0.155,0.906,0.896
	C454.751,77.921,454.803,79.111,454.803,80.298z"/>
<path fill="#E20613" d="M318.524,80.384c0,1.213-0.031,2.426,0.013,3.636c0.023,0.656-0.38,0.652-0.805,0.643
	c-0.422-0.01-0.904,0.091-0.897-0.632c0.025-2.47,0.027-4.94-0.002-7.412c-0.009-0.733,0.464-0.611,0.889-0.623
	c0.424-0.013,0.837-0.062,0.814,0.613C318.494,77.865,318.524,79.125,318.524,80.384z"/>
<path fill="#E20613" d="M364.239,80.306c0-1.232,0.029-2.466-0.012-3.697c-0.023-0.671,0.393-0.627,0.813-0.612
	c0.414,0.016,0.916-0.141,0.909,0.6c-0.023,2.489-0.019,4.978-0.003,7.465c0.005,0.671-0.465,0.6-0.863,0.597
	c-0.384-0.003-0.869,0.105-0.854-0.584C364.26,82.817,364.239,81.562,364.239,80.306z"/>
<path fill="#E20613" d="M377.669,89.703c-0.253-0.187-0.541-0.09-0.812-0.09c-19.71-0.005-39.422-0.005-59.133-0.006
	c-0.302,0-0.604-0.017-0.906-0.025c0.278-0.186,0.59-0.095,0.884-0.095c20.438-0.005,40.875-0.004,61.334-0.004
	C378.622,89.887,378.118,89.629,377.669,89.703z"/>
<path fill="#E20613" d="M329.26,84.54c0-2.061,0-4.122,0-6.319c0.205,0.187,0.303,0.28,0.289,0.457
	c-0.212,0.186-0.109,0.435-0.111,0.652c-0.01,1.504,0,3.008-0.011,4.513C329.426,84.081,329.537,84.362,329.26,84.54z"/>
<path fill="#1D1D1B" d="M296.935,46.646c-0.176-0.486-0.084-0.987-0.125-1.557c0.219,0.131,0.283,0.254,0.27,0.424
	C296.833,45.866,297.062,46.279,296.935,46.646z"/>
<path fill="#1D1D1B" d="M361.896,58.374c0.183,0.414,0.03,0.86,0.121,1.284c0.019,0.082,0.007,0.206-0.115,0.171
	c-0.062-0.016-0.092-0.138-0.136-0.213C361.983,59.22,361.779,58.78,361.896,58.374z"/>
<path fill="#1D1D1B" d="M309.567,58.359c0.205,0.465,0.035,0.958,0.136,1.467c-0.223-0.047-0.263-0.183-0.275-0.34
	C309.657,59.133,309.44,58.726,309.567,58.359z"/>
<path fill="#1D1D1B" d="M412.143,67.672c-0.046-0.562-0.215-1.095-0.38-1.628c-1.478-4.749-2.953-9.498-4.435-14.244
	c-1.323-4.236-2.675-8.465-3.969-12.71c-0.263-0.86-0.781-1.23-1.602-1.265c-0.766-0.031-1.534-0.007-2.302-0.007
	c0-0.01,0-0.021,0-0.031c-0.535,0-1.071-0.005-1.605,0c-1.646,0.016-1.893,0.205-2.377,1.761
	c-2.359,7.589-4.731,15.174-7.076,22.768c-0.516,1.663-1.146,3.296-1.476,5.011c-0.173,0.907,0.064,1.22,0.955,1.318
	c1.066,0.118,2.135,0.096,3.206-0.011c0.725-0.073,1.117-0.43,1.309-1.129c0.487-1.771,1.027-3.527,1.521-5.295
	c0.119-0.427,0.251-0.635,0.774-0.629c3.03,0.036,6.061,0.034,9.091,0.001c0.511-0.006,0.66,0.184,0.783,0.619
	c0.525,1.832,1.094,3.651,1.63,5.48c0.135,0.456,0.331,0.832,0.846,0.901c1.461,0.197,2.927,0.202,4.389,0.018
	C411.951,68.535,412.188,68.207,412.143,67.672z M402.488,56.785c-2.19-0.025-4.382-0.02-6.572-0.003
	c-0.42,0.003-0.586-0.044-0.44-0.526c1.213-4.002,2.406-8.011,3.604-12.017c0.023-0.08,0.052-0.157,0.131-0.393
	c0.38,1.276,0.714,2.408,1.051,3.539c0.875,2.939,1.741,5.88,2.639,8.813C403.042,56.659,403.007,56.791,402.488,56.785z"/>
<path fill="#1D1D1B" d="M341.751,66.32c-2.817-9.077-5.651-18.148-8.483-27.22c-0.305-0.974-0.617-1.223-1.659-1.277
	c-0.741-0.039-1.488-0.008-2.232-0.008c0-0.003,0-0.005,0-0.008c-0.699,0-1.397-0.024-2.095,0.005
	c-1.154,0.048-1.443,0.29-1.785,1.392c-2.776,8.92-5.553,17.84-8.326,26.761c-0.165,0.531-0.337,1.061-0.378,1.626
	c-0.045,0.634,0.231,0.964,0.852,1.038c1.116,0.13,2.228,0.111,3.346,0.007c0.727-0.068,1.118-0.423,1.31-1.126
	c0.489-1.794,1.036-3.572,1.531-5.364c0.118-0.43,0.306-0.562,0.761-0.558c3.053,0.025,6.107,0.024,9.161,0
	c0.439-0.003,0.588,0.156,0.7,0.543c0.543,1.875,1.123,3.74,1.667,5.615c0.158,0.544,0.482,0.798,1.031,0.878
	c0.931,0.135,1.862,0.084,2.793,0.088C342.155,68.719,342.403,68.416,341.751,66.32z M332.392,56.784
	c-2.189-0.023-4.381-0.015-6.571-0.005c-0.368,0.001-0.577-0.029-0.439-0.49c1.231-4.086,2.449-8.177,3.729-12.459
	c0.296,0.984,0.542,1.797,0.784,2.611c0.969,3.251,1.924,6.507,2.915,9.751C332.953,56.664,332.91,56.79,332.392,56.784z"/>
<path fill="#1D1D1B" d="M400.632,79.288c-0.164-2.002-1.193-3.167-3.083-3.5c-2.69-0.473-4.702,0.873-5.121,3.439
	c-0.101,0.622-0.078,1.254-0.037,1.882c0.152,2.32,1.433,3.573,3.746,3.646c0.393,0.011,0.791-0.006,1.182-0.061
	c1.495-0.207,2.511-1.024,3.03-2.443c0.25-0.685,0.329-1.401,0.322-2.127C400.659,79.846,400.656,79.566,400.632,79.288z
	 M398.618,81.547c-0.28,1.173-1.102,1.778-2.275,1.728c-1.147-0.051-1.814-0.697-2.001-1.934c-0.131-0.883-0.151-1.761,0.134-2.62
	c0.341-1.025,1.098-1.546,2.165-1.5c1.086,0.046,1.769,0.604,1.998,1.691c0.092,0.43,0.101,0.876,0.149,1.342
	C398.736,80.673,398.72,81.12,398.618,81.547z"/>
<path fill="#E20613" d="M343.408,80.207c0-0.326,0.024-0.654-0.004-0.978c-0.173-1.948-1.252-3.121-3.052-3.333
	c-2.216-0.262-3.78,0.646-4.376,2.573c-0.425,1.373-0.374,2.762,0.046,4.124c0.239,0.781,0.73,1.394,1.481,1.771
	c2.599,1.307,5.431-0.121,5.876-2.975c0.061-0.389,0.05-0.789,0.072-1.184C343.437,80.207,343.421,80.207,343.408,80.207z
	 M341.586,81.44c-0.221,1.199-0.964,1.865-2.082,1.852c-1.102-0.015-1.765-0.644-1.949-1.879c-0.055-0.366-0.058-0.741-0.084-1.128
	c0.067-0.467,0.036-0.958,0.187-1.435c0.336-1.058,1.045-1.567,2.138-1.501c0.975,0.059,1.6,0.66,1.787,1.732
	C341.719,79.867,341.73,80.652,341.586,81.44z"/>
<path fill="#E20613" d="M357.436,83.968c-0.837-2.485-1.65-4.979-2.476-7.468c-0.072-0.217-0.145-0.418-0.429-0.489
	c-1.215-0.31-1.828,0.006-2.224,1.189c-0.739,2.227-1.477,4.455-2.211,6.685c-0.081,0.248-0.28,0.528,0.092,0.722
	c0.584,0.305,1.357-0.007,1.559-0.622c0.431-1.319,0.431-1.319,1.812-1.319c0.023,0,0.047,0,0.07,0c1.552,0,1.552,0,1.89,1.04
	c0.314,0.97,0.414,1.026,1.426,0.967C357.441,84.644,357.609,84.479,357.436,83.968z M354.324,81.316
	c-0.464-0.025-0.931-0.017-1.396-0.002c-0.269,0.009-0.391-0.047-0.294-0.348c0.329-1.011,0.646-2.025,1.03-3.234
	c0.363,1.158,0.652,2.138,0.984,3.101C354.775,81.2,354.742,81.34,354.324,81.316z"/>
<path fill="#1D1D1B" d="M391.116,78.228c-0.126-1.236-0.878-1.984-2.214-2.239c-1.042-0.2-2.091-0.088-3.136-0.106
	c-0.51-0.009-0.664,0.309-0.658,0.781c0.016,1.213,0.005,2.425,0.005,3.636c0,1.096,0,2.191,0,3.287
	c0,1.031,0.293,1.255,1.335,1.058c0.326-0.062,0.482-0.19,0.469-0.551c-0.025-0.675,0.014-1.352-0.016-2.026
	c-0.017-0.376,0.111-0.479,0.472-0.461c0.679,0.034,1.35-0.044,1.991-0.285C390.59,80.856,391.263,79.665,391.116,78.228z
	 M389.159,79.213c-0.207,0.735-1.489,1.331-2.126,0.992c-0.126-0.068-0.123-0.178-0.123-0.291c-0.001-0.767,0.011-1.533-0.005-2.298
	c-0.013-0.579,0.435-0.221,0.582-0.343C388.872,77.289,389.491,78.034,389.159,79.213z"/>
<path fill="#1D1D1B" d="M462.622,52.283c-0.003-0.045-0.01-0.09-0.025-0.131c-0.269-0.676-0.718-1.053-1.478-1.051
	c-2.962,0.009-5.923,0.015-8.885-0.006c-0.555-0.004-0.829,0.243-0.934,0.732c-0.236,1.108-0.234,2.221,0.003,3.328
	c0.105,0.493,0.396,0.729,0.945,0.718c1.468-0.03,2.938,0.002,4.406-0.019c0.392-0.005,0.517,0.101,0.512,0.503
	c-0.02,2.029-0.03,4.058,0.008,6.085c0.009,0.503-0.273,0.64-0.613,0.798c-3.352,1.559-7.852,0.356-9.682-2.937
	c-2.588-4.662-2.624-9.513,0.104-14.159c1.587-2.702,4.218-3.749,7.312-3.64c2.488,0.087,4.724,0.94,6.799,2.268
	c0.892,0.57,1.048,0.602,1.526-0.137v-4.049c-0.401-0.897-1.197-1.4-2.087-1.819c-1.402-0.66-2.885-1.024-4.41-1.237
	c-0.125-0.017-0.29,0.055-0.341-0.141c-1.446,0-2.893,0-4.339,0c-0.048,0.196-0.216,0.133-0.34,0.153
	c-5.013,0.817-8.547,3.564-10.396,8.277c-1.887,4.809-1.953,9.747-0.3,14.631c1.562,4.611,4.816,7.428,9.625,8.336
	c3.584,0.678,7.086,0.234,10.517-0.949c0.849-0.293,1.631-0.636,2.071-1.424L462.622,52.283L462.622,52.283z"/>
</svg>
